<svg xmlns="http://www.w3.org/2000/svg" width="128" height="128" viewBox="0 0 128 128"
>
    <path fill="#ed1c24"
          d="M61.29 35.571c3.084-4.471 5.116-8.844 6.425-13.15.338 4.619 1.039 9.2 2.554 13.703 7.34-10.316 13.394-20.511 19.527-30.712-4.581 10.998-9.084 22.032-11.161 33.996 3.978-1.594 8.059-3.64 13.045-7.123-2.542 4.914-4.709 8.602-6.115 12.815 11.469-2.825 22.696-8.215 33.93-13.455-9.96 6.429-19.926 12.828-29.113 21 4.074 1.504 8.052 1.975 12.012 2.294-3.567 1.425-6.972 3.224-9.779 6.369C104.483 65.05 116.241 67.7 128 70.254c-12.024-.453-24.037-.755-35.946-.018 2.65 3.26 5.861 6.368 9.404 9.314-4.291-.906-8.535-1.238-12.718-.996 7.123 9.833 15.248 18.857 23.312 27.93-9.604-7.54-19.244-14.844-29.053-21.03.109 4.152.628 8.269 2.053 12.301-2.813-2.831-5.916-5.42-9.646-7.503-.145 11.312.694 23.439 2.342 36.242-3.127-11.385-6.61-22.745-11.053-34.009-2.106 2.68-4.044 6.067-5.608 11.017-.543-4.745-1.666-8.596-3.368-11.572-7.261 9.205-13.406 19.932-19.521 30.707 4.394-11.397 8.765-22.793 11.16-33.997-4.363 1.413-8.637 3.743-12.832 6.984 2.62-4.129 4.774-8.33 5.903-12.688-11.445 3.042-22.702 8.1-33.93 13.449 9.918-6.52 19.793-13.141 29.113-21.007-3.247-1.406-7.322-2.293-13.201-2.058 4.521-1.678 8.42-3.73 10.968-6.61-11.07-3.64-22.95-6.543-35.379-8.946 12.085 1.081 24.109 1.485 35.952.013-2.716-3.918-6.169-6.948-9.96-9.568 4.503 1.19 8.946 1.823 13.28 1.243-7.062-10.17-15.169-19.068-23.312-27.93 9.779 7.974 19.503 15.43 29.053 21.031-.193-4.34-.755-8.644-2.131-12.87 2.089 3.097 5.33 5.79 9.73 8.065.332-12.187-.893-24.224-2.342-36.242 2.964 11.409 6.314 22.775 11.059 34.009z"/>
    <path fill="#ffcb05"
          d="M62.282 40.9c12.749-.936 23.909 8.698 24.846 21.445.935 12.747-8.7 23.907-21.447 24.843-12.748.937-23.909-8.698-24.845-21.445-.935-12.748 8.699-23.908 21.447-24.844z"/>
</svg>